<svg width="24" height="24" viewBox="0 0 24 24" fill="none" xmlns="http://www.w3.org/2000/svg">
<path d="M21.7852 4.13601L21.7851 4.13602L21.7901 4.13782C22.0988 4.24858 22.415 4.48822 22.6544 4.8057C22.8976 5.12815 23 5.44736 23 5.66984V10.9405C23 16.2658 18.6217 21.4267 12.449 22.9476C12.1606 23.0175 11.8389 23.0175 11.5506 22.9476C5.37812 21.4266 1 16.2657 1 10.9405V5.66984C1 5.44707 1.10262 5.12724 1.34532 4.80378C1.58446 4.48508 1.89854 4.24613 2.20032 4.1364L2.20138 4.13601L9.70204 1.399C9.70217 1.39895 9.70231 1.3989 9.70244 1.39886C11.1649 0.867072 12.8214 0.867048 14.2838 1.39878C14.284 1.39886 14.2842 1.39893 14.2844 1.399L21.7852 4.13601Z" stroke="#4AC2AE" stroke-width="2"/>
<path d="M7.49475 12.64L10.0548 15.2L16.4548 8.8" stroke="#4AC2AE" stroke-width="2" stroke-linecap="round" stroke-linejoin="round"/>
</svg>
